<svg width="456" height="268" viewBox="0 0 456 268" fill="none" xmlns="http://www.w3.org/2000/svg">
<rect x="135" y="224" width="186" height="44" rx="5" fill="#A792C6"/>
<path d="M190.648 252.5V241.297H193.836C194.805 241.297 195.573 241.534 196.141 242.008C196.708 242.482 196.992 243.099 196.992 243.859C196.992 244.495 196.82 245.047 196.477 245.516C196.133 245.984 195.659 246.318 195.055 246.516V246.547C195.81 246.635 196.414 246.922 196.867 247.406C197.32 247.885 197.547 248.51 197.547 249.281C197.547 250.24 197.203 251.016 196.516 251.609C195.828 252.203 194.961 252.5 193.914 252.5H190.648ZM191.961 242.484V246.102H193.305C194.023 246.102 194.589 245.93 195 245.586C195.411 245.237 195.617 244.747 195.617 244.117C195.617 243.029 194.901 242.484 193.469 242.484H191.961ZM191.961 247.281V251.312H193.742C194.513 251.312 195.109 251.13 195.531 250.766C195.958 250.401 196.172 249.901 196.172 249.266C196.172 247.943 195.271 247.281 193.469 247.281H191.961ZM205.375 252.5H204.094V251.25H204.062C203.505 252.208 202.685 252.688 201.602 252.688C200.805 252.688 200.18 252.477 199.727 252.055C199.279 251.633 199.055 251.073 199.055 250.375C199.055 248.88 199.935 248.01 201.695 247.766L204.094 247.43C204.094 246.07 203.544 245.391 202.445 245.391C201.482 245.391 200.612 245.719 199.836 246.375V245.062C200.622 244.562 201.529 244.312 202.555 244.312C204.435 244.312 205.375 245.307 205.375 247.297V252.5ZM204.094 248.453L202.164 248.719C201.57 248.802 201.122 248.951 200.82 249.164C200.518 249.372 200.367 249.745 200.367 250.281C200.367 250.672 200.505 250.992 200.781 251.242C201.062 251.487 201.435 251.609 201.898 251.609C202.534 251.609 203.057 251.388 203.469 250.945C203.885 250.497 204.094 249.932 204.094 249.25V248.453ZM213.242 252.133C212.628 252.503 211.898 252.688 211.055 252.688C209.914 252.688 208.992 252.318 208.289 251.578C207.591 250.833 207.242 249.87 207.242 248.688C207.242 247.37 207.62 246.312 208.375 245.516C209.13 244.714 210.138 244.312 211.398 244.312C212.102 244.312 212.721 244.443 213.258 244.703V246.016C212.664 245.599 212.029 245.391 211.352 245.391C210.534 245.391 209.862 245.685 209.336 246.273C208.815 246.857 208.555 247.625 208.555 248.578C208.555 249.516 208.799 250.255 209.289 250.797C209.784 251.339 210.445 251.609 211.273 251.609C211.971 251.609 212.628 251.378 213.242 250.914V252.133ZM221.82 252.5H220.023L216.492 248.656H216.461V252.5H215.18V240.656H216.461V248.164H216.492L219.852 244.5H221.531L217.82 248.359L221.82 252.5ZM234.164 252.5H232.883V247.891C232.883 246.224 232.263 245.391 231.023 245.391C230.398 245.391 229.872 245.633 229.445 246.117C229.018 246.596 228.805 247.214 228.805 247.969V252.5H227.523V240.656H228.805V245.828H228.836C229.451 244.818 230.326 244.312 231.461 244.312C233.263 244.312 234.164 245.398 234.164 247.57V252.5ZM239.93 252.688C238.747 252.688 237.802 252.315 237.094 251.57C236.391 250.82 236.039 249.828 236.039 248.594C236.039 247.25 236.406 246.201 237.141 245.445C237.875 244.69 238.867 244.312 240.117 244.312C241.31 244.312 242.24 244.68 242.906 245.414C243.578 246.148 243.914 247.167 243.914 248.469C243.914 249.745 243.552 250.768 242.828 251.539C242.109 252.305 241.143 252.688 239.93 252.688ZM240.023 245.391C239.201 245.391 238.549 245.672 238.07 246.234C237.591 246.792 237.352 247.562 237.352 248.547C237.352 249.495 237.594 250.242 238.078 250.789C238.562 251.336 239.211 251.609 240.023 251.609C240.852 251.609 241.487 251.341 241.93 250.805C242.378 250.268 242.602 249.505 242.602 248.516C242.602 247.516 242.378 246.745 241.93 246.203C241.487 245.661 240.852 245.391 240.023 245.391ZM257.32 252.5H256.039V247.906C256.039 247.021 255.901 246.38 255.625 245.984C255.354 245.589 254.896 245.391 254.25 245.391C253.703 245.391 253.237 245.641 252.852 246.141C252.471 246.641 252.281 247.24 252.281 247.938V252.5H251V247.75C251 246.177 250.393 245.391 249.18 245.391C248.617 245.391 248.154 245.628 247.789 246.102C247.424 246.57 247.242 247.182 247.242 247.938V252.5H245.961V244.5H247.242V245.766H247.273C247.841 244.797 248.669 244.312 249.758 244.312C250.305 244.312 250.781 244.466 251.188 244.773C251.594 245.076 251.872 245.474 252.023 245.969C252.617 244.865 253.503 244.312 254.68 244.312C256.44 244.312 257.32 245.398 257.32 247.57V252.5ZM266.172 248.82H260.523C260.544 249.711 260.784 250.398 261.242 250.883C261.701 251.367 262.331 251.609 263.133 251.609C264.034 251.609 264.862 251.312 265.617 250.719V251.922C264.914 252.432 263.984 252.688 262.828 252.688C261.698 252.688 260.81 252.326 260.164 251.602C259.518 250.872 259.195 249.849 259.195 248.531C259.195 247.286 259.547 246.273 260.25 245.492C260.958 244.706 261.836 244.312 262.883 244.312C263.93 244.312 264.74 244.651 265.312 245.328C265.885 246.005 266.172 246.945 266.172 248.148V248.82ZM264.859 247.734C264.854 246.995 264.674 246.419 264.32 246.008C263.971 245.596 263.484 245.391 262.859 245.391C262.255 245.391 261.742 245.607 261.32 246.039C260.898 246.471 260.638 247.036 260.539 247.734H264.859Z" fill="white"/>
<path d="M23.1753 162.216C22.2513 162.216 21.4413 162.054 20.7453 161.73C20.0493 161.406 19.5033 160.944 19.1073 160.344C18.7233 159.744 18.5253 159.03 18.5133 158.202H20.5293C20.5413 158.874 20.7753 159.444 21.2313 159.912C21.6873 160.38 22.3293 160.614 23.1573 160.614C23.8893 160.614 24.4593 160.44 24.8673 160.092C25.2873 159.732 25.4973 159.276 25.4973 158.724C25.4973 158.28 25.3953 157.92 25.1913 157.644C24.9993 157.368 24.7293 157.14 24.3813 156.96C24.0453 156.78 23.6553 156.618 23.2113 156.474C22.7673 156.33 22.2993 156.174 21.8073 156.006C20.8353 155.682 20.1033 155.262 19.6113 154.746C19.1313 154.23 18.8913 153.552 18.8913 152.712C18.8793 152.004 19.0413 151.386 19.3773 150.858C19.7253 150.33 20.2053 149.922 20.8173 149.634C21.4413 149.334 22.1673 149.184 22.9953 149.184C23.8113 149.184 24.5253 149.334 25.1373 149.634C25.7613 149.934 26.2473 150.354 26.5953 150.894C26.9433 151.422 27.1233 152.04 27.1353 152.748H25.1193C25.1193 152.424 25.0353 152.118 24.8673 151.83C24.6993 151.53 24.4533 151.284 24.1293 151.092C23.8053 150.9 23.4093 150.804 22.9413 150.804C22.3413 150.792 21.8433 150.942 21.4473 151.254C21.0633 151.566 20.8713 151.998 20.8713 152.55C20.8713 153.042 21.0153 153.42 21.3033 153.684C21.5913 153.948 21.9873 154.17 22.4913 154.35C22.9953 154.518 23.5713 154.716 24.2193 154.944C24.8433 155.148 25.4013 155.394 25.8933 155.682C26.3853 155.97 26.7753 156.348 27.0633 156.816C27.3633 157.284 27.5133 157.878 27.5133 158.598C27.5133 159.234 27.3513 159.828 27.0273 160.38C26.7033 160.92 26.2173 161.364 25.5693 161.712C24.9213 162.048 24.1233 162.216 23.1753 162.216ZM33.7033 162.216C32.8513 162.216 32.0833 162.024 31.3993 161.64C30.7273 161.244 30.1933 160.698 29.7973 160.002C29.4013 159.294 29.2033 158.472 29.2033 157.536C29.2033 156.6 29.4013 155.784 29.7973 155.088C30.2053 154.38 30.7513 153.834 31.4353 153.45C32.1193 153.054 32.8813 152.856 33.7213 152.856C34.5733 152.856 35.3353 153.054 36.0073 153.45C36.6913 153.834 37.2313 154.38 37.6273 155.088C38.0353 155.784 38.2393 156.6 38.2393 157.536C38.2393 158.472 38.0353 159.294 37.6273 160.002C37.2313 160.698 36.6913 161.244 36.0073 161.64C35.3233 162.024 34.5553 162.216 33.7033 162.216ZM33.7033 160.578C34.1593 160.578 34.5793 160.464 34.9633 160.236C35.3593 160.008 35.6773 159.672 35.9173 159.228C36.1573 158.772 36.2773 158.208 36.2773 157.536C36.2773 156.864 36.1573 156.306 35.9173 155.862C35.6893 155.406 35.3773 155.064 34.9813 154.836C34.5973 154.608 34.1773 154.494 33.7213 154.494C33.2653 154.494 32.8393 154.608 32.4433 154.836C32.0593 155.064 31.7473 155.406 31.5073 155.862C31.2673 156.306 31.1473 156.864 31.1473 157.536C31.1473 158.208 31.2673 158.772 31.5073 159.228C31.7473 159.672 32.0593 160.008 32.4433 160.236C32.8273 160.464 33.2473 160.578 33.7033 160.578ZM40.3027 162V153.072H42.0127L42.1747 154.764C42.4867 154.176 42.9187 153.714 43.4707 153.378C44.0347 153.03 44.7127 152.856 45.5047 152.856V154.854H44.9827C44.4547 154.854 43.9807 154.944 43.5607 155.124C43.1527 155.292 42.8227 155.586 42.5707 156.006C42.3307 156.414 42.2107 156.984 42.2107 157.716V162H40.3027ZM47.1406 162V153.072H48.8506L49.0126 154.764C49.3246 154.176 49.7566 153.714 50.3086 153.378C50.8726 153.03 51.5506 152.856 52.3426 152.856V154.854H51.8206C51.2926 154.854 50.8186 154.944 50.3986 155.124C49.9906 155.292 49.6606 155.586 49.4086 156.006C49.1686 156.414 49.0486 156.984 49.0486 157.716V162H47.1406ZM55.0225 165.96L57.1645 161.262H56.6425L53.1145 153.072H55.1845L57.9205 159.678L60.7825 153.072H62.7985L57.0385 165.96H55.0225ZM63.7872 162.108C63.4272 162.108 63.1272 161.994 62.8872 161.766C62.6592 161.526 62.5452 161.244 62.5452 160.92C62.5452 160.584 62.6592 160.302 62.8872 160.074C63.1272 159.834 63.4272 159.714 63.7872 159.714C64.1472 159.714 64.4412 159.834 64.6692 160.074C64.8972 160.302 65.0112 160.584 65.0112 160.92C65.0112 161.244 64.8972 161.526 64.6692 161.766C64.4412 161.994 64.1472 162.108 63.7872 162.108ZM75.2127 162C74.3367 162 73.6407 161.79 73.1247 161.37C72.6087 160.938 72.3507 160.176 72.3507 159.084V154.674H70.8207V153.072H72.3507L72.5847 150.804H74.2587V153.072H76.7787V154.674H74.2587V159.084C74.2587 159.576 74.3607 159.918 74.5647 160.11C74.7807 160.29 75.1467 160.38 75.6627 160.38H76.6887V162H75.2127ZM78.746 162V149.04H80.654V154.512C80.954 153.996 81.368 153.594 81.896 153.306C82.436 153.006 83.03 152.856 83.678 152.856C84.746 152.856 85.586 153.192 86.198 153.864C86.81 154.536 87.116 155.538 87.116 156.87V162H85.226V157.068C85.226 155.34 84.536 154.476 83.156 154.476C82.436 154.476 81.836 154.728 81.356 155.232C80.888 155.736 80.654 156.456 80.654 157.392V162H78.746ZM93.5392 162.216C92.6632 162.216 91.8832 162.024 91.1992 161.64C90.5272 161.244 89.9992 160.698 89.6152 160.002C89.2312 159.306 89.0392 158.496 89.0392 157.572C89.0392 156.636 89.2252 155.814 89.5972 155.106C89.9812 154.398 90.5092 153.846 91.1812 153.45C91.8652 153.054 92.6572 152.856 93.5572 152.856C94.4332 152.856 95.1952 153.054 95.8432 153.45C96.4912 153.834 96.9952 154.35 97.3552 154.998C97.7152 155.646 97.8952 156.36 97.8952 157.14C97.8952 157.26 97.8892 157.392 97.8772 157.536C97.8772 157.668 97.8712 157.818 97.8592 157.986H90.9112C90.9712 158.85 91.2532 159.51 91.7572 159.966C92.2732 160.41 92.8672 160.632 93.5392 160.632C94.0792 160.632 94.5292 160.512 94.8892 160.272C95.2612 160.02 95.5372 159.684 95.7172 159.264H97.6252C97.3852 160.104 96.9052 160.806 96.1852 161.37C95.4772 161.934 94.5952 162.216 93.5392 162.216ZM93.5392 154.422C92.9032 154.422 92.3392 154.614 91.8472 154.998C91.3552 155.37 91.0552 155.934 90.9472 156.69H95.9872C95.9512 155.994 95.7052 155.442 95.2492 155.034C94.7932 154.626 94.2232 154.422 93.5392 154.422ZM108.64 162.216C107.764 162.216 106.978 162.018 106.282 161.622C105.598 161.226 105.058 160.68 104.662 159.984C104.278 159.276 104.086 158.46 104.086 157.536C104.086 156.612 104.278 155.802 104.662 155.106C105.058 154.398 105.598 153.846 106.282 153.45C106.978 153.054 107.764 152.856 108.64 152.856C109.744 152.856 110.668 153.144 111.412 153.72C112.168 154.296 112.654 155.076 112.87 156.06H110.872C110.752 155.568 110.488 155.184 110.08 154.908C109.672 154.632 109.192 154.494 108.64 154.494C108.172 154.494 107.74 154.614 107.344 154.854C106.948 155.082 106.63 155.424 106.39 155.88C106.15 156.324 106.03 156.876 106.03 157.536C106.03 158.196 106.15 158.754 106.39 159.21C106.63 159.654 106.948 159.996 107.344 160.236C107.74 160.476 108.172 160.596 108.64 160.596C109.192 160.596 109.672 160.458 110.08 160.182C110.488 159.906 110.752 159.516 110.872 159.012H112.87C112.666 159.972 112.186 160.746 111.43 161.334C110.674 161.922 109.744 162.216 108.64 162.216ZM119.115 162.216C118.263 162.216 117.495 162.024 116.811 161.64C116.139 161.244 115.605 160.698 115.209 160.002C114.813 159.294 114.615 158.472 114.615 157.536C114.615 156.6 114.813 155.784 115.209 155.088C115.617 154.38 116.163 153.834 116.847 153.45C117.531 153.054 118.293 152.856 119.133 152.856C119.985 152.856 120.747 153.054 121.419 153.45C122.103 153.834 122.643 154.38 123.039 155.088C123.447 155.784 123.651 156.6 123.651 157.536C123.651 158.472 123.447 159.294 123.039 160.002C122.643 160.698 122.103 161.244 121.419 161.64C120.735 162.024 119.967 162.216 119.115 162.216ZM119.115 160.578C119.571 160.578 119.991 160.464 120.375 160.236C120.771 160.008 121.089 159.672 121.329 159.228C121.569 158.772 121.689 158.208 121.689 157.536C121.689 156.864 121.569 156.306 121.329 155.862C121.101 155.406 120.789 155.064 120.393 154.836C120.009 154.608 119.589 154.494 119.133 154.494C118.677 154.494 118.251 154.608 117.855 154.836C117.471 155.064 117.159 155.406 116.919 155.862C116.679 156.306 116.559 156.864 116.559 157.536C116.559 158.208 116.679 158.772 116.919 159.228C117.159 159.672 117.471 160.008 117.855 160.236C118.239 160.464 118.659 160.578 119.115 160.578ZM125.715 162V153.072H127.407L127.551 154.638C127.827 154.086 128.229 153.654 128.757 153.342C129.297 153.018 129.915 152.856 130.611 152.856C131.691 152.856 132.537 153.192 133.149 153.864C133.773 154.536 134.085 155.538 134.085 156.87V162H132.195V157.068C132.195 155.34 131.487 154.476 130.071 154.476C129.363 154.476 128.775 154.728 128.307 155.232C127.851 155.736 127.623 156.456 127.623 157.392V162H125.715ZM140.076 162C139.2 162 138.504 161.79 137.988 161.37C137.472 160.938 137.214 160.176 137.214 159.084V154.674H135.684V153.072H137.214L137.448 150.804H139.122V153.072H141.642V154.674H139.122V159.084C139.122 159.576 139.224 159.918 139.428 160.11C139.644 160.29 140.01 160.38 140.526 160.38H141.552V162H140.076ZM147.557 162.216C146.681 162.216 145.901 162.024 145.217 161.64C144.545 161.244 144.017 160.698 143.633 160.002C143.249 159.306 143.057 158.496 143.057 157.572C143.057 156.636 143.243 155.814 143.615 155.106C143.999 154.398 144.527 153.846 145.199 153.45C145.883 153.054 146.675 152.856 147.575 152.856C148.451 152.856 149.213 153.054 149.861 153.45C150.509 153.834 151.013 154.35 151.373 154.998C151.733 155.646 151.913 156.36 151.913 157.14C151.913 157.26 151.907 157.392 151.895 157.536C151.895 157.668 151.889 157.818 151.877 157.986H144.929C144.989 158.85 145.271 159.51 145.775 159.966C146.291 160.41 146.885 160.632 147.557 160.632C148.097 160.632 148.547 160.512 148.907 160.272C149.279 160.02 149.555 159.684 149.735 159.264H151.643C151.403 160.104 150.923 160.806 150.203 161.37C149.495 161.934 148.613 162.216 147.557 162.216ZM147.557 154.422C146.921 154.422 146.357 154.614 145.865 154.998C145.373 155.37 145.073 155.934 144.965 156.69H150.005C149.969 155.994 149.723 155.442 149.267 155.034C148.811 154.626 148.241 154.422 147.557 154.422ZM153.893 162V153.072H155.585L155.729 154.638C156.005 154.086 156.407 153.654 156.935 153.342C157.475 153.018 158.093 152.856 158.789 152.856C159.869 152.856 160.715 153.192 161.327 153.864C161.951 154.536 162.263 155.538 162.263 156.87V162H160.373V157.068C160.373 155.34 159.665 154.476 158.249 154.476C157.541 154.476 156.953 154.728 156.485 155.232C156.029 155.736 155.801 156.456 155.801 157.392V162H153.893ZM168.254 162C167.378 162 166.682 161.79 166.166 161.37C165.65 160.938 165.392 160.176 165.392 159.084V154.674H163.862V153.072H165.392L165.626 150.804H167.3V153.072H169.82V154.674H167.3V159.084C167.3 159.576 167.402 159.918 167.606 160.11C167.822 160.29 168.188 160.38 168.704 160.38H169.73V162H168.254ZM177.366 165.96L179.508 161.262H178.986L175.458 153.072H177.528L180.264 159.678L183.126 153.072H185.142L179.382 165.96H177.366ZM190.078 162.216C189.226 162.216 188.458 162.024 187.774 161.64C187.102 161.244 186.568 160.698 186.172 160.002C185.776 159.294 185.578 158.472 185.578 157.536C185.578 156.6 185.776 155.784 186.172 155.088C186.58 154.38 187.126 153.834 187.81 153.45C188.494 153.054 189.256 152.856 190.096 152.856C190.948 152.856 191.71 153.054 192.382 153.45C193.066 153.834 193.606 154.38 194.002 155.088C194.41 155.784 194.614 156.6 194.614 157.536C194.614 158.472 194.41 159.294 194.002 160.002C193.606 160.698 193.066 161.244 192.382 161.64C191.698 162.024 190.93 162.216 190.078 162.216ZM190.078 160.578C190.534 160.578 190.954 160.464 191.338 160.236C191.734 160.008 192.052 159.672 192.292 159.228C192.532 158.772 192.652 158.208 192.652 157.536C192.652 156.864 192.532 156.306 192.292 155.862C192.064 155.406 191.752 155.064 191.356 154.836C190.972 154.608 190.552 154.494 190.096 154.494C189.64 154.494 189.214 154.608 188.818 154.836C188.434 155.064 188.122 155.406 187.882 155.862C187.642 156.306 187.522 156.864 187.522 157.536C187.522 158.208 187.642 158.772 187.882 159.228C188.122 159.672 188.434 160.008 188.818 160.236C189.202 160.464 189.622 160.578 190.078 160.578ZM199.972 162.216C198.892 162.216 198.04 161.88 197.416 161.208C196.804 160.536 196.498 159.534 196.498 158.202V153.072H198.406V158.004C198.406 159.732 199.114 160.596 200.53 160.596C201.238 160.596 201.82 160.344 202.276 159.84C202.732 159.336 202.96 158.616 202.96 157.68V153.072H204.868V162H203.176L203.032 160.434C202.756 160.986 202.348 161.424 201.808 161.748C201.28 162.06 200.668 162.216 199.972 162.216ZM206.755 153.63L207.763 149.4H209.833L208.087 153.63H206.755ZM211.602 162V153.072H213.312L213.474 154.764C213.786 154.176 214.218 153.714 214.77 153.378C215.334 153.03 216.012 152.856 216.804 152.856V154.854H216.282C215.754 154.854 215.28 154.944 214.86 155.124C214.452 155.292 214.122 155.586 213.87 156.006C213.63 156.414 213.51 156.984 213.51 157.716V162H211.602ZM222.369 162.216C221.493 162.216 220.713 162.024 220.029 161.64C219.357 161.244 218.829 160.698 218.445 160.002C218.061 159.306 217.869 158.496 217.869 157.572C217.869 156.636 218.055 155.814 218.427 155.106C218.811 154.398 219.339 153.846 220.011 153.45C220.695 153.054 221.487 152.856 222.387 152.856C223.263 152.856 224.025 153.054 224.673 153.45C225.321 153.834 225.825 154.35 226.185 154.998C226.545 155.646 226.725 156.36 226.725 157.14C226.725 157.26 226.719 157.392 226.707 157.536C226.707 157.668 226.701 157.818 226.689 157.986H219.741C219.801 158.85 220.083 159.51 220.587 159.966C221.103 160.41 221.697 160.632 222.369 160.632C222.909 160.632 223.359 160.512 223.719 160.272C224.091 160.02 224.367 159.684 224.547 159.264H226.455C226.215 160.104 225.735 160.806 225.015 161.37C224.307 161.934 223.425 162.216 222.369 162.216ZM222.369 154.422C221.733 154.422 221.169 154.614 220.677 154.998C220.185 155.37 219.885 155.934 219.777 156.69H224.817C224.781 155.994 224.535 155.442 224.079 155.034C223.623 154.626 223.053 154.422 222.369 154.422ZM233.24 162V149.04H235.148V162H233.24ZM241.74 162.216C240.888 162.216 240.12 162.024 239.436 161.64C238.764 161.244 238.23 160.698 237.834 160.002C237.438 159.294 237.24 158.472 237.24 157.536C237.24 156.6 237.438 155.784 237.834 155.088C238.242 154.38 238.788 153.834 239.472 153.45C240.156 153.054 240.918 152.856 241.758 152.856C242.61 152.856 243.372 153.054 244.044 153.45C244.728 153.834 245.268 154.38 245.664 155.088C246.072 155.784 246.276 156.6 246.276 157.536C246.276 158.472 246.072 159.294 245.664 160.002C245.268 160.698 244.728 161.244 244.044 161.64C243.36 162.024 242.592 162.216 241.74 162.216ZM241.74 160.578C242.196 160.578 242.616 160.464 243 160.236C243.396 160.008 243.714 159.672 243.954 159.228C244.194 158.772 244.314 158.208 244.314 157.536C244.314 156.864 244.194 156.306 243.954 155.862C243.726 155.406 243.414 155.064 243.018 154.836C242.634 154.608 242.214 154.494 241.758 154.494C241.302 154.494 240.876 154.608 240.48 154.836C240.096 155.064 239.784 155.406 239.544 155.862C239.304 156.306 239.184 156.864 239.184 157.536C239.184 158.208 239.304 158.772 239.544 159.228C239.784 159.672 240.096 160.008 240.48 160.236C240.864 160.464 241.284 160.578 241.74 160.578ZM252.516 162.216C251.664 162.216 250.896 162.024 250.212 161.64C249.54 161.244 249.006 160.698 248.61 160.002C248.214 159.294 248.016 158.472 248.016 157.536C248.016 156.6 248.214 155.784 248.61 155.088C249.018 154.38 249.564 153.834 250.248 153.45C250.932 153.054 251.694 152.856 252.534 152.856C253.386 152.856 254.148 153.054 254.82 153.45C255.504 153.834 256.044 154.38 256.44 155.088C256.848 155.784 257.052 156.6 257.052 157.536C257.052 158.472 256.848 159.294 256.44 160.002C256.044 160.698 255.504 161.244 254.82 161.64C254.136 162.024 253.368 162.216 252.516 162.216ZM252.516 160.578C252.972 160.578 253.392 160.464 253.776 160.236C254.172 160.008 254.49 159.672 254.73 159.228C254.97 158.772 255.09 158.208 255.09 157.536C255.09 156.864 254.97 156.306 254.73 155.862C254.502 155.406 254.19 155.064 253.794 154.836C253.41 154.608 252.99 154.494 252.534 154.494C252.078 154.494 251.652 154.608 251.256 154.836C250.872 155.064 250.56 155.406 250.32 155.862C250.08 156.306 249.96 156.864 249.96 157.536C249.96 158.208 250.08 158.772 250.32 159.228C250.56 159.672 250.872 160.008 251.256 160.236C251.64 160.464 252.06 160.578 252.516 160.578ZM259.115 162V149.04H261.023V156.762L264.443 153.072H266.729L262.931 157.122L267.287 162H264.875L261.023 157.428V162H259.115ZM269.846 151.38C269.486 151.38 269.186 151.272 268.946 151.056C268.718 150.828 268.604 150.546 268.604 150.21C268.604 149.874 268.718 149.598 268.946 149.382C269.186 149.154 269.486 149.04 269.846 149.04C270.206 149.04 270.5 149.154 270.728 149.382C270.968 149.598 271.088 149.874 271.088 150.21C271.088 150.546 270.968 150.828 270.728 151.056C270.5 151.272 270.206 151.38 269.846 151.38ZM268.892 162V153.072H270.8V162H268.892ZM273.318 162V153.072H275.01L275.154 154.638C275.43 154.086 275.832 153.654 276.36 153.342C276.9 153.018 277.518 152.856 278.214 152.856C279.294 152.856 280.14 153.192 280.752 153.864C281.376 154.536 281.688 155.538 281.688 156.87V162H279.798V157.068C279.798 155.34 279.09 154.476 277.674 154.476C276.966 154.476 276.378 154.728 275.91 155.232C275.454 155.736 275.226 156.456 275.226 157.392V162H273.318ZM287.589 159.264C287.121 159.264 286.689 159.21 286.293 159.102L285.519 159.858C285.651 159.942 285.813 160.014 286.005 160.074C286.197 160.134 286.467 160.188 286.815 160.236C287.163 160.284 287.637 160.332 288.237 160.38C289.425 160.488 290.283 160.776 290.811 161.244C291.339 161.7 291.603 162.312 291.603 163.08C291.603 163.608 291.459 164.106 291.171 164.574C290.895 165.054 290.457 165.438 289.857 165.726C289.269 166.026 288.513 166.176 287.589 166.176C286.341 166.176 285.327 165.936 284.547 165.456C283.779 164.988 283.395 164.274 283.395 163.314C283.395 162.942 283.491 162.57 283.683 162.198C283.887 161.838 284.205 161.496 284.637 161.172C284.385 161.064 284.163 160.95 283.971 160.83C283.791 160.698 283.629 160.566 283.485 160.434V160.002L285.033 158.418C284.337 157.818 283.989 157.032 283.989 156.06C283.989 155.472 284.127 154.938 284.403 154.458C284.691 153.966 285.105 153.576 285.645 153.288C286.185 153 286.833 152.856 287.589 152.856C288.093 152.856 288.561 152.928 288.993 153.072H292.323V154.332L290.739 154.422C291.027 154.914 291.171 155.46 291.171 156.06C291.171 156.66 291.027 157.2 290.739 157.68C290.463 158.16 290.055 158.544 289.515 158.832C288.987 159.12 288.345 159.264 287.589 159.264ZM287.589 157.77C288.141 157.77 288.585 157.626 288.921 157.338C289.269 157.038 289.443 156.618 289.443 156.078C289.443 155.526 289.269 155.106 288.921 154.818C288.585 154.53 288.141 154.386 287.589 154.386C287.025 154.386 286.569 154.53 286.221 154.818C285.885 155.106 285.717 155.526 285.717 156.078C285.717 156.618 285.885 157.038 286.221 157.338C286.569 157.626 287.025 157.77 287.589 157.77ZM285.195 163.134C285.195 163.65 285.423 164.034 285.879 164.286C286.335 164.55 286.905 164.682 287.589 164.682C288.249 164.682 288.783 164.538 289.191 164.25C289.599 163.974 289.803 163.602 289.803 163.134C289.803 162.786 289.665 162.486 289.389 162.234C289.113 161.994 288.591 161.844 287.823 161.784C287.247 161.748 286.737 161.694 286.293 161.622C285.873 161.85 285.585 162.096 285.429 162.36C285.273 162.624 285.195 162.882 285.195 163.134ZM299.01 162V154.674H297.732V153.072H299.01V151.776C299.01 150.804 299.25 150.108 299.73 149.688C300.222 149.256 300.912 149.04 301.8 149.04H302.736V150.66H302.088C301.668 150.66 301.368 150.75 301.188 150.93C301.008 151.098 300.918 151.386 300.918 151.794V153.072H302.97V154.674H300.918V162H299.01ZM308.608 162.216C307.756 162.216 306.988 162.024 306.304 161.64C305.632 161.244 305.098 160.698 304.702 160.002C304.306 159.294 304.108 158.472 304.108 157.536C304.108 156.6 304.306 155.784 304.702 155.088C305.11 154.38 305.656 153.834 306.34 153.45C307.024 153.054 307.786 152.856 308.626 152.856C309.478 152.856 310.24 153.054 310.912 153.45C311.596 153.834 312.136 154.38 312.532 155.088C312.94 155.784 313.144 156.6 313.144 157.536C313.144 158.472 312.94 159.294 312.532 160.002C312.136 160.698 311.596 161.244 310.912 161.64C310.228 162.024 309.46 162.216 308.608 162.216ZM308.608 160.578C309.064 160.578 309.484 160.464 309.868 160.236C310.264 160.008 310.582 159.672 310.822 159.228C311.062 158.772 311.182 158.208 311.182 157.536C311.182 156.864 311.062 156.306 310.822 155.862C310.594 155.406 310.282 155.064 309.886 154.836C309.502 154.608 309.082 154.494 308.626 154.494C308.17 154.494 307.744 154.608 307.348 154.836C306.964 155.064 306.652 155.406 306.412 155.862C306.172 156.306 306.052 156.864 306.052 157.536C306.052 158.208 306.172 158.772 306.412 159.228C306.652 159.672 306.964 160.008 307.348 160.236C307.732 160.464 308.152 160.578 308.608 160.578ZM315.207 162V153.072H316.917L317.079 154.764C317.391 154.176 317.823 153.714 318.375 153.378C318.939 153.03 319.617 152.856 320.409 152.856V154.854H319.887C319.359 154.854 318.885 154.944 318.465 155.124C318.057 155.292 317.727 155.586 317.475 156.006C317.235 156.414 317.115 156.984 317.115 157.716V162H315.207ZM330.648 162.216C329.784 162.216 329.022 162.012 328.362 161.604C327.702 161.196 327.186 160.638 326.814 159.93C326.442 159.222 326.256 158.418 326.256 157.518C326.256 156.618 326.442 155.82 326.814 155.124C327.186 154.416 327.702 153.864 328.362 153.468C329.034 153.06 329.802 152.856 330.666 152.856C331.374 152.856 331.992 152.994 332.52 153.27C333.06 153.546 333.48 153.936 333.78 154.44V149.04H335.688V162H333.978L333.78 160.614C333.492 161.034 333.096 161.406 332.592 161.73C332.088 162.054 331.44 162.216 330.648 162.216ZM330.99 160.56C331.806 160.56 332.472 160.278 332.988 159.714C333.516 159.15 333.78 158.424 333.78 157.536C333.78 156.636 333.516 155.91 332.988 155.358C332.472 154.794 331.806 154.512 330.99 154.512C330.174 154.512 329.502 154.794 328.974 155.358C328.446 155.91 328.182 156.636 328.182 157.536C328.182 158.124 328.302 158.646 328.542 159.102C328.782 159.558 329.112 159.918 329.532 160.182C329.964 160.434 330.45 160.56 330.99 160.56ZM342.27 162.216C341.418 162.216 340.65 162.024 339.966 161.64C339.294 161.244 338.76 160.698 338.364 160.002C337.968 159.294 337.77 158.472 337.77 157.536C337.77 156.6 337.968 155.784 338.364 155.088C338.772 154.38 339.318 153.834 340.002 153.45C340.686 153.054 341.448 152.856 342.288 152.856C343.14 152.856 343.902 153.054 344.574 153.45C345.258 153.834 345.798 154.38 346.194 155.088C346.602 155.784 346.806 156.6 346.806 157.536C346.806 158.472 346.602 159.294 346.194 160.002C345.798 160.698 345.258 161.244 344.574 161.64C343.89 162.024 343.122 162.216 342.27 162.216ZM342.27 160.578C342.726 160.578 343.146 160.464 343.53 160.236C343.926 160.008 344.244 159.672 344.484 159.228C344.724 158.772 344.844 158.208 344.844 157.536C344.844 156.864 344.724 156.306 344.484 155.862C344.256 155.406 343.944 155.064 343.548 154.836C343.164 154.608 342.744 154.494 342.288 154.494C341.832 154.494 341.406 154.608 341.01 154.836C340.626 155.064 340.314 155.406 340.074 155.862C339.834 156.306 339.714 156.864 339.714 157.536C339.714 158.208 339.834 158.772 340.074 159.228C340.314 159.672 340.626 160.008 341.01 160.236C341.394 160.464 341.814 160.578 342.27 160.578ZM353.045 162.216C352.169 162.216 351.389 162.024 350.705 161.64C350.033 161.244 349.505 160.698 349.121 160.002C348.737 159.306 348.545 158.496 348.545 157.572C348.545 156.636 348.731 155.814 349.103 155.106C349.487 154.398 350.015 153.846 350.687 153.45C351.371 153.054 352.163 152.856 353.063 152.856C353.939 152.856 354.701 153.054 355.349 153.45C355.997 153.834 356.501 154.35 356.861 154.998C357.221 155.646 357.401 156.36 357.401 157.14C357.401 157.26 357.395 157.392 357.383 157.536C357.383 157.668 357.377 157.818 357.365 157.986H350.417C350.477 158.85 350.759 159.51 351.263 159.966C351.779 160.41 352.373 160.632 353.045 160.632C353.585 160.632 354.035 160.512 354.395 160.272C354.767 160.02 355.043 159.684 355.223 159.264H357.131C356.891 160.104 356.411 160.806 355.691 161.37C354.983 161.934 354.101 162.216 353.045 162.216ZM353.045 154.422C352.409 154.422 351.845 154.614 351.353 154.998C350.861 155.37 350.561 155.934 350.453 156.69H355.493C355.457 155.994 355.211 155.442 354.755 155.034C354.299 154.626 353.729 154.422 353.045 154.422ZM362.945 162.216C361.817 162.216 360.887 161.94 360.155 161.388C359.423 160.836 359.003 160.104 358.895 159.192H360.821C360.917 159.6 361.145 159.954 361.505 160.254C361.865 160.542 362.339 160.686 362.927 160.686C363.503 160.686 363.923 160.566 364.187 160.326C364.451 160.086 364.583 159.81 364.583 159.498C364.583 159.042 364.397 158.736 364.025 158.58C363.665 158.412 363.161 158.262 362.513 158.13C362.009 158.022 361.505 157.878 361.001 157.698C360.509 157.518 360.095 157.266 359.759 156.942C359.435 156.606 359.273 156.156 359.273 155.592C359.273 154.812 359.573 154.164 360.173 153.648C360.773 153.12 361.613 152.856 362.693 152.856C363.689 152.856 364.493 153.096 365.105 153.576C365.729 154.056 366.095 154.734 366.203 155.61H364.367C364.307 155.226 364.127 154.926 363.827 154.71C363.539 154.494 363.149 154.386 362.657 154.386C362.177 154.386 361.805 154.488 361.541 154.692C361.277 154.884 361.145 155.136 361.145 155.448C361.145 155.76 361.325 156.006 361.685 156.186C362.057 156.366 362.543 156.528 363.143 156.672C363.743 156.804 364.295 156.96 364.799 157.14C365.315 157.308 365.729 157.56 366.041 157.896C366.353 158.232 366.509 158.724 366.509 159.372C366.521 160.188 366.203 160.866 365.555 161.406C364.919 161.946 364.049 162.216 362.945 162.216ZM368.592 162V153.072H370.284L370.428 154.638C370.704 154.086 371.106 153.654 371.634 153.342C372.174 153.018 372.792 152.856 373.488 152.856C374.568 152.856 375.414 153.192 376.026 153.864C376.65 154.536 376.962 155.538 376.962 156.87V162H375.072V157.068C375.072 155.34 374.364 154.476 372.948 154.476C372.24 154.476 371.652 154.728 371.184 155.232C370.728 155.736 370.5 156.456 370.5 157.392V162H368.592ZM378.669 153.63L379.677 149.4H381.747L380.001 153.63H378.669ZM387.26 162C386.384 162 385.688 161.79 385.172 161.37C384.656 160.938 384.398 160.176 384.398 159.084V154.674H382.868V153.072H384.398L384.632 150.804H386.306V153.072H388.826V154.674H386.306V159.084C386.306 159.576 386.408 159.918 386.612 160.11C386.828 160.29 387.194 160.38 387.71 160.38H388.736V162H387.26ZM399.504 162.216C398.628 162.216 397.848 162.024 397.164 161.64C396.492 161.244 395.964 160.698 395.58 160.002C395.196 159.306 395.004 158.496 395.004 157.572C395.004 156.636 395.19 155.814 395.562 155.106C395.946 154.398 396.474 153.846 397.146 153.45C397.83 153.054 398.622 152.856 399.522 152.856C400.398 152.856 401.16 153.054 401.808 153.45C402.456 153.834 402.96 154.35 403.32 154.998C403.68 155.646 403.86 156.36 403.86 157.14C403.86 157.26 403.854 157.392 403.842 157.536C403.842 157.668 403.836 157.818 403.824 157.986H396.876C396.936 158.85 397.218 159.51 397.722 159.966C398.238 160.41 398.832 160.632 399.504 160.632C400.044 160.632 400.494 160.512 400.854 160.272C401.226 160.02 401.502 159.684 401.682 159.264H403.59C403.35 160.104 402.87 160.806 402.15 161.37C401.442 161.934 400.56 162.216 399.504 162.216ZM399.504 154.422C398.868 154.422 398.304 154.614 397.812 154.998C397.32 155.37 397.02 155.934 396.912 156.69H401.952C401.916 155.994 401.67 155.442 401.214 155.034C400.758 154.626 400.188 154.422 399.504 154.422ZM404.448 162L407.616 157.536L404.448 153.072H406.482L408.876 156.492L411.252 153.072H413.304L410.136 157.536L413.304 162H411.252L408.876 158.58L406.482 162H404.448ZM415.937 151.38C415.577 151.38 415.277 151.272 415.037 151.056C414.809 150.828 414.695 150.546 414.695 150.21C414.695 149.874 414.809 149.598 415.037 149.382C415.277 149.154 415.577 149.04 415.937 149.04C416.297 149.04 416.591 149.154 416.819 149.382C417.059 149.598 417.179 149.874 417.179 150.21C417.179 150.546 417.059 150.828 416.819 151.056C416.591 151.272 416.297 151.38 415.937 151.38ZM414.983 162V153.072H416.891V162H414.983ZM422.974 162.216C421.846 162.216 420.916 161.94 420.184 161.388C419.452 160.836 419.032 160.104 418.924 159.192H420.85C420.946 159.6 421.174 159.954 421.534 160.254C421.894 160.542 422.368 160.686 422.956 160.686C423.532 160.686 423.952 160.566 424.216 160.326C424.48 160.086 424.612 159.81 424.612 159.498C424.612 159.042 424.426 158.736 424.054 158.58C423.694 158.412 423.19 158.262 422.542 158.13C422.038 158.022 421.534 157.878 421.03 157.698C420.538 157.518 420.124 157.266 419.788 156.942C419.464 156.606 419.302 156.156 419.302 155.592C419.302 154.812 419.602 154.164 420.202 153.648C420.802 153.12 421.642 152.856 422.722 152.856C423.718 152.856 424.522 153.096 425.134 153.576C425.758 154.056 426.124 154.734 426.232 155.61H424.396C424.336 155.226 424.156 154.926 423.856 154.71C423.568 154.494 423.178 154.386 422.686 154.386C422.206 154.386 421.834 154.488 421.57 154.692C421.306 154.884 421.174 155.136 421.174 155.448C421.174 155.76 421.354 156.006 421.714 156.186C422.086 156.366 422.572 156.528 423.172 156.672C423.772 156.804 424.324 156.96 424.828 157.14C425.344 157.308 425.758 157.56 426.07 157.896C426.382 158.232 426.538 158.724 426.538 159.372C426.55 160.188 426.232 160.866 425.584 161.406C424.948 161.946 424.078 162.216 422.974 162.216ZM432.031 162C431.155 162 430.459 161.79 429.943 161.37C429.427 160.938 429.169 160.176 429.169 159.084V154.674H427.639V153.072H429.169L429.403 150.804H431.077V153.072H433.597V154.674H431.077V159.084C431.077 159.576 431.179 159.918 431.383 160.11C431.599 160.29 431.965 160.38 432.481 160.38H433.507V162H432.031ZM436.32 162.108C435.96 162.108 435.66 161.994 435.42 161.766C435.192 161.526 435.078 161.244 435.078 160.92C435.078 160.584 435.192 160.302 435.42 160.074C435.66 159.834 435.96 159.714 436.32 159.714C436.68 159.714 436.974 159.834 437.202 160.074C437.43 160.302 437.544 160.584 437.544 160.92C437.544 161.244 437.43 161.526 437.202 161.766C436.974 161.994 436.68 162.108 436.32 162.108ZM28.7555 185V172.4H36.7655V173.948H30.6635V177.872H36.2255V179.384H30.6635V183.452H36.7655V185H28.7555ZM40.0467 174.38C39.6867 174.38 39.3867 174.272 39.1467 174.056C38.9187 173.828 38.8047 173.546 38.8047 173.21C38.8047 172.874 38.9187 172.598 39.1467 172.382C39.3867 172.154 39.6867 172.04 40.0467 172.04C40.4067 172.04 40.7007 172.154 40.9287 172.382C41.1687 172.598 41.2887 172.874 41.2887 173.21C41.2887 173.546 41.1687 173.828 40.9287 174.056C40.7007 174.272 40.4067 174.38 40.0467 174.38ZM39.0927 185V176.072H41.0007V185H39.0927ZM47.2635 185C46.3875 185 45.6915 184.79 45.1755 184.37C44.6595 183.938 44.4015 183.176 44.4015 182.084V177.674H42.8715V176.072H44.4015L44.6355 173.804H46.3095V176.072H48.8295V177.674H46.3095V182.084C46.3095 182.576 46.4115 182.918 46.6155 183.11C46.8315 183.29 47.1975 183.38 47.7135 183.38H48.7395V185H47.2635ZM50.7968 185V172.04H52.7048V177.512C53.0048 176.996 53.4188 176.594 53.9468 176.306C54.4868 176.006 55.0808 175.856 55.7288 175.856C56.7968 175.856 57.6368 176.192 58.2488 176.864C58.8608 177.536 59.1668 178.538 59.1668 179.87V185H57.2768V180.068C57.2768 178.34 56.5868 177.476 55.2068 177.476C54.4868 177.476 53.8868 177.728 53.4068 178.232C52.9388 178.736 52.7048 179.456 52.7048 180.392V185H50.7968ZM65.59 185.216C64.714 185.216 63.934 185.024 63.25 184.64C62.578 184.244 62.05 183.698 61.666 183.002C61.282 182.306 61.09 181.496 61.09 180.572C61.09 179.636 61.276 178.814 61.648 178.106C62.032 177.398 62.56 176.846 63.232 176.45C63.916 176.054 64.708 175.856 65.608 175.856C66.484 175.856 67.246 176.054 67.894 176.45C68.542 176.834 69.046 177.35 69.406 177.998C69.766 178.646 69.946 179.36 69.946 180.14C69.946 180.26 69.94 180.392 69.928 180.536C69.928 180.668 69.922 180.818 69.91 180.986H62.962C63.022 181.85 63.304 182.51 63.808 182.966C64.324 183.41 64.918 183.632 65.59 183.632C66.13 183.632 66.58 183.512 66.94 183.272C67.312 183.02 67.588 182.684 67.768 182.264H69.676C69.436 183.104 68.956 183.806 68.236 184.37C67.528 184.934 66.646 185.216 65.59 185.216ZM65.59 177.422C64.954 177.422 64.39 177.614 63.898 177.998C63.406 178.37 63.106 178.934 62.998 179.69H68.038C68.002 178.994 67.756 178.442 67.3 178.034C66.844 177.626 66.274 177.422 65.59 177.422ZM71.9257 185V176.072H73.6357L73.7977 177.764C74.1097 177.176 74.5417 176.714 75.0937 176.378C75.6577 176.03 76.3357 175.856 77.1277 175.856V177.854H76.6057C76.0777 177.854 75.6037 177.944 75.1837 178.124C74.7757 178.292 74.4457 178.586 74.1937 179.006C73.9537 179.414 73.8337 179.984 73.8337 180.716V185H71.9257ZM84.3788 174.38C84.0188 174.38 83.7188 174.272 83.4788 174.056C83.2508 173.828 83.1368 173.546 83.1368 173.21C83.1368 172.874 83.2508 172.598 83.4788 172.382C83.7188 172.154 84.0188 172.04 84.3788 172.04C84.7388 172.04 85.0328 172.154 85.2608 172.382C85.5008 172.598 85.6208 172.874 85.6208 173.21C85.6208 173.546 85.5008 173.828 85.2608 174.056C85.0328 174.272 84.7388 174.38 84.3788 174.38ZM83.4248 185V176.072H85.3328V185H83.4248ZM91.5955 185C90.7195 185 90.0235 184.79 89.5075 184.37C88.9915 183.938 88.7335 183.176 88.7335 182.084V177.674H87.2035V176.072H88.7335L88.9675 173.804H90.6415V176.072H93.1615V177.674H90.6415V182.084C90.6415 182.576 90.7435 182.918 90.9475 183.11C91.1635 183.29 91.5295 183.38 92.0455 183.38H93.0715V185H91.5955ZM101.446 185L98.818 176.072H100.726L102.454 182.804L104.398 176.072H106.522L108.466 182.804L110.194 176.072H112.102L109.474 185H107.512L105.46 177.98L103.408 185H101.446ZM116.293 185.216C115.537 185.216 114.913 185.09 114.421 184.838C113.929 184.586 113.563 184.256 113.323 183.848C113.083 183.428 112.963 182.972 112.963 182.48C112.963 181.616 113.299 180.932 113.971 180.428C114.643 179.924 115.603 179.672 116.851 179.672H119.191V179.51C119.191 178.814 118.999 178.292 118.615 177.944C118.243 177.596 117.757 177.422 117.157 177.422C116.629 177.422 116.167 177.554 115.771 177.818C115.387 178.07 115.153 178.448 115.069 178.952H113.161C113.221 178.304 113.437 177.752 113.809 177.296C114.193 176.828 114.673 176.474 115.249 176.234C115.837 175.982 116.479 175.856 117.175 175.856C118.423 175.856 119.389 176.186 120.073 176.846C120.757 177.494 121.099 178.382 121.099 179.51V185H119.443L119.281 183.47C119.029 183.962 118.663 184.376 118.183 184.712C117.703 185.048 117.073 185.216 116.293 185.216ZM116.671 183.668C117.187 183.668 117.619 183.548 117.967 183.308C118.327 183.056 118.603 182.726 118.795 182.318C118.999 181.91 119.125 181.46 119.173 180.968H117.049C116.293 180.968 115.753 181.1 115.429 181.364C115.117 181.628 114.961 181.958 114.961 182.354C114.961 182.762 115.111 183.086 115.411 183.326C115.723 183.554 116.143 183.668 116.671 183.668ZM126.888 185.216C125.76 185.216 124.83 184.94 124.098 184.388C123.366 183.836 122.946 183.104 122.838 182.192H124.764C124.86 182.6 125.088 182.954 125.448 183.254C125.808 183.542 126.282 183.686 126.87 183.686C127.446 183.686 127.866 183.566 128.13 183.326C128.394 183.086 128.526 182.81 128.526 182.498C128.526 182.042 128.34 181.736 127.968 181.58C127.608 181.412 127.104 181.262 126.456 181.13C125.952 181.022 125.448 180.878 124.944 180.698C124.452 180.518 124.038 180.266 123.702 179.942C123.378 179.606 123.216 179.156 123.216 178.592C123.216 177.812 123.516 177.164 124.116 176.648C124.716 176.12 125.556 175.856 126.636 175.856C127.632 175.856 128.436 176.096 129.048 176.576C129.672 177.056 130.038 177.734 130.146 178.61H128.31C128.25 178.226 128.07 177.926 127.77 177.71C127.482 177.494 127.092 177.386 126.6 177.386C126.12 177.386 125.748 177.488 125.484 177.692C125.22 177.884 125.088 178.136 125.088 178.448C125.088 178.76 125.268 179.006 125.628 179.186C126 179.366 126.486 179.528 127.086 179.672C127.686 179.804 128.238 179.96 128.742 180.14C129.258 180.308 129.672 180.56 129.984 180.896C130.296 181.232 130.452 181.724 130.452 182.372C130.464 183.188 130.146 183.866 129.498 184.406C128.862 184.946 127.992 185.216 126.888 185.216ZM137.07 185V176.072H138.78L138.942 177.764C139.254 177.176 139.686 176.714 140.238 176.378C140.802 176.03 141.48 175.856 142.272 175.856V177.854H141.75C141.222 177.854 140.748 177.944 140.328 178.124C139.92 178.292 139.59 178.586 139.338 179.006C139.098 179.414 138.978 179.984 138.978 180.716V185H137.07ZM147.838 185.216C146.962 185.216 146.182 185.024 145.498 184.64C144.826 184.244 144.298 183.698 143.914 183.002C143.53 182.306 143.338 181.496 143.338 180.572C143.338 179.636 143.524 178.814 143.896 178.106C144.28 177.398 144.808 176.846 145.48 176.45C146.164 176.054 146.956 175.856 147.856 175.856C148.732 175.856 149.494 176.054 150.142 176.45C150.79 176.834 151.294 177.35 151.654 177.998C152.014 178.646 152.194 179.36 152.194 180.14C152.194 180.26 152.188 180.392 152.176 180.536C152.176 180.668 152.17 180.818 152.158 180.986H145.21C145.27 181.85 145.552 182.51 146.056 182.966C146.572 183.41 147.166 183.632 147.838 183.632C148.378 183.632 148.828 183.512 149.188 183.272C149.56 183.02 149.836 182.684 150.016 182.264H151.924C151.684 183.104 151.204 183.806 150.484 184.37C149.776 184.934 148.894 185.216 147.838 185.216ZM147.838 177.422C147.202 177.422 146.638 177.614 146.146 177.998C145.654 178.37 145.354 178.934 145.246 179.69H150.286C150.25 178.994 150.004 178.442 149.548 178.034C149.092 177.626 148.522 177.422 147.838 177.422ZM154.174 185V176.072H155.866L156.028 177.332C156.316 176.876 156.694 176.516 157.162 176.252C157.642 175.988 158.194 175.856 158.818 175.856C160.234 175.856 161.218 176.414 161.77 177.53C162.094 177.014 162.526 176.606 163.066 176.306C163.618 176.006 164.212 175.856 164.848 175.856C165.964 175.856 166.84 176.192 167.476 176.864C168.112 177.536 168.43 178.538 168.43 179.87V185H166.522V180.068C166.522 178.34 165.862 177.476 164.542 177.476C163.87 177.476 163.318 177.728 162.886 178.232C162.466 178.736 162.256 179.456 162.256 180.392V185H160.348V180.068C160.348 178.34 159.682 177.476 158.35 177.476C157.69 177.476 157.144 177.728 156.712 178.232C156.292 178.736 156.082 179.456 156.082 180.392V185H154.174ZM174.838 185.216C173.986 185.216 173.218 185.024 172.534 184.64C171.862 184.244 171.328 183.698 170.932 183.002C170.536 182.294 170.338 181.472 170.338 180.536C170.338 179.6 170.536 178.784 170.932 178.088C171.34 177.38 171.886 176.834 172.57 176.45C173.254 176.054 174.016 175.856 174.856 175.856C175.708 175.856 176.47 176.054 177.142 176.45C177.826 176.834 178.366 177.38 178.762 178.088C179.17 178.784 179.374 179.6 179.374 180.536C179.374 181.472 179.17 182.294 178.762 183.002C178.366 183.698 177.826 184.244 177.142 184.64C176.458 185.024 175.69 185.216 174.838 185.216ZM174.838 183.578C175.294 183.578 175.714 183.464 176.098 183.236C176.494 183.008 176.812 182.672 177.052 182.228C177.292 181.772 177.412 181.208 177.412 180.536C177.412 179.864 177.292 179.306 177.052 178.862C176.824 178.406 176.512 178.064 176.116 177.836C175.732 177.608 175.312 177.494 174.856 177.494C174.4 177.494 173.974 177.608 173.578 177.836C173.194 178.064 172.882 178.406 172.642 178.862C172.402 179.306 172.282 179.864 172.282 180.536C172.282 181.208 172.402 181.772 172.642 182.228C172.882 182.672 173.194 183.008 173.578 183.236C173.962 183.464 174.382 183.578 174.838 183.578ZM183.482 185L180.134 176.072H182.132L184.616 183.182L187.1 176.072H189.08L185.75 185H183.482ZM194.367 185.216C193.491 185.216 192.711 185.024 192.027 184.64C191.355 184.244 190.827 183.698 190.443 183.002C190.059 182.306 189.867 181.496 189.867 180.572C189.867 179.636 190.053 178.814 190.425 178.106C190.809 177.398 191.337 176.846 192.009 176.45C192.693 176.054 193.485 175.856 194.385 175.856C195.261 175.856 196.023 176.054 196.671 176.45C197.319 176.834 197.823 177.35 198.183 177.998C198.543 178.646 198.723 179.36 198.723 180.14C198.723 180.26 198.717 180.392 198.705 180.536C198.705 180.668 198.699 180.818 198.687 180.986H191.739C191.799 181.85 192.081 182.51 192.585 182.966C193.101 183.41 193.695 183.632 194.367 183.632C194.907 183.632 195.357 183.512 195.717 183.272C196.089 183.02 196.365 182.684 196.545 182.264H198.453C198.213 183.104 197.733 183.806 197.013 184.37C196.305 184.934 195.423 185.216 194.367 185.216ZM194.367 177.422C193.731 177.422 193.167 177.614 192.675 177.998C192.183 178.37 191.883 178.934 191.775 179.69H196.815C196.779 178.994 196.533 178.442 196.077 178.034C195.621 177.626 195.051 177.422 194.367 177.422ZM204.771 185.216C203.907 185.216 203.145 185.012 202.485 184.604C201.825 184.196 201.309 183.638 200.937 182.93C200.565 182.222 200.379 181.418 200.379 180.518C200.379 179.618 200.565 178.82 200.937 178.124C201.309 177.416 201.825 176.864 202.485 176.468C203.157 176.06 203.925 175.856 204.789 175.856C205.497 175.856 206.115 175.994 206.643 176.27C207.183 176.546 207.603 176.936 207.903 177.44V172.04H209.811V185H208.101L207.903 183.614C207.615 184.034 207.219 184.406 206.715 184.73C206.211 185.054 205.563 185.216 204.771 185.216ZM205.113 183.56C205.929 183.56 206.595 183.278 207.111 182.714C207.639 182.15 207.903 181.424 207.903 180.536C207.903 179.636 207.639 178.91 207.111 178.358C206.595 177.794 205.929 177.512 205.113 177.512C204.297 177.512 203.625 177.794 203.097 178.358C202.569 178.91 202.305 179.636 202.305 180.536C202.305 181.124 202.425 181.646 202.665 182.102C202.905 182.558 203.235 182.918 203.655 183.182C204.087 183.434 204.573 183.56 205.113 183.56ZM211.155 187.124L212.199 182.876H214.089L212.433 187.124H211.155ZM224.602 185.216C223.75 185.216 222.982 185.024 222.298 184.64C221.626 184.244 221.092 183.698 220.696 183.002C220.3 182.294 220.102 181.472 220.102 180.536C220.102 179.6 220.3 178.784 220.696 178.088C221.104 177.38 221.65 176.834 222.334 176.45C223.018 176.054 223.78 175.856 224.62 175.856C225.472 175.856 226.234 176.054 226.906 176.45C227.59 176.834 228.13 177.38 228.526 178.088C228.934 178.784 229.138 179.6 229.138 180.536C229.138 181.472 228.934 182.294 228.526 183.002C228.13 183.698 227.59 184.244 226.906 184.64C226.222 185.024 225.454 185.216 224.602 185.216ZM224.602 183.578C225.058 183.578 225.478 183.464 225.862 183.236C226.258 183.008 226.576 182.672 226.816 182.228C227.056 181.772 227.176 181.208 227.176 180.536C227.176 179.864 227.056 179.306 226.816 178.862C226.588 178.406 226.276 178.064 225.88 177.836C225.496 177.608 225.076 177.494 224.62 177.494C224.164 177.494 223.738 177.608 223.342 177.836C222.958 178.064 222.646 178.406 222.406 178.862C222.166 179.306 222.046 179.864 222.046 180.536C222.046 181.208 222.166 181.772 222.406 182.228C222.646 182.672 222.958 183.008 223.342 183.236C223.726 183.464 224.146 183.578 224.602 183.578ZM231.201 185V176.072H232.911L233.073 177.764C233.385 177.176 233.817 176.714 234.369 176.378C234.933 176.03 235.611 175.856 236.403 175.856V177.854H235.881C235.353 177.854 234.879 177.944 234.459 178.124C234.051 178.292 233.721 178.586 233.469 179.006C233.229 179.414 233.109 179.984 233.109 180.716V185H231.201ZM243.618 188.96L245.76 184.262H245.238L241.71 176.072H243.78L246.516 182.678L249.378 176.072H251.394L245.634 188.96H243.618ZM256.33 185.216C255.478 185.216 254.71 185.024 254.026 184.64C253.354 184.244 252.82 183.698 252.424 183.002C252.028 182.294 251.83 181.472 251.83 180.536C251.83 179.6 252.028 178.784 252.424 178.088C252.832 177.38 253.378 176.834 254.062 176.45C254.746 176.054 255.508 175.856 256.348 175.856C257.2 175.856 257.962 176.054 258.634 176.45C259.318 176.834 259.858 177.38 260.254 178.088C260.662 178.784 260.866 179.6 260.866 180.536C260.866 181.472 260.662 182.294 260.254 183.002C259.858 183.698 259.318 184.244 258.634 184.64C257.95 185.024 257.182 185.216 256.33 185.216ZM256.33 183.578C256.786 183.578 257.206 183.464 257.59 183.236C257.986 183.008 258.304 182.672 258.544 182.228C258.784 181.772 258.904 181.208 258.904 180.536C258.904 179.864 258.784 179.306 258.544 178.862C258.316 178.406 258.004 178.064 257.608 177.836C257.224 177.608 256.804 177.494 256.348 177.494C255.892 177.494 255.466 177.608 255.07 177.836C254.686 178.064 254.374 178.406 254.134 178.862C253.894 179.306 253.774 179.864 253.774 180.536C253.774 181.208 253.894 181.772 254.134 182.228C254.374 182.672 254.686 183.008 255.07 183.236C255.454 183.464 255.874 183.578 256.33 183.578ZM266.224 185.216C265.144 185.216 264.292 184.88 263.668 184.208C263.056 183.536 262.75 182.534 262.75 181.202V176.072H264.658V181.004C264.658 182.732 265.366 183.596 266.782 183.596C267.49 183.596 268.072 183.344 268.528 182.84C268.984 182.336 269.212 181.616 269.212 180.68V176.072H271.12V185H269.428L269.284 183.434C269.008 183.986 268.6 184.424 268.06 184.748C267.532 185.06 266.92 185.216 266.224 185.216ZM278.082 185V176.072H279.774L279.936 177.332C280.224 176.876 280.602 176.516 281.07 176.252C281.55 175.988 282.102 175.856 282.726 175.856C284.142 175.856 285.126 176.414 285.678 177.53C286.002 177.014 286.434 176.606 286.974 176.306C287.526 176.006 288.12 175.856 288.756 175.856C289.872 175.856 290.748 176.192 291.384 176.864C292.02 177.536 292.338 178.538 292.338 179.87V185H290.43V180.068C290.43 178.34 289.77 177.476 288.45 177.476C287.778 177.476 287.226 177.728 286.794 178.232C286.374 178.736 286.164 179.456 286.164 180.392V185H284.256V180.068C284.256 178.34 283.59 177.476 282.258 177.476C281.598 177.476 281.052 177.728 280.62 178.232C280.2 178.736 279.99 179.456 279.99 180.392V185H278.082ZM295.65 174.38C295.29 174.38 294.99 174.272 294.75 174.056C294.522 173.828 294.408 173.546 294.408 173.21C294.408 172.874 294.522 172.598 294.75 172.382C294.99 172.154 295.29 172.04 295.65 172.04C296.01 172.04 296.304 172.154 296.532 172.382C296.772 172.598 296.892 172.874 296.892 173.21C296.892 173.546 296.772 173.828 296.532 174.056C296.304 174.272 296.01 174.38 295.65 174.38ZM294.696 185V176.072H296.604V185H294.696ZM302.687 185.216C301.559 185.216 300.629 184.94 299.897 184.388C299.165 183.836 298.745 183.104 298.637 182.192H300.563C300.659 182.6 300.887 182.954 301.247 183.254C301.607 183.542 302.081 183.686 302.669 183.686C303.245 183.686 303.665 183.566 303.929 183.326C304.193 183.086 304.325 182.81 304.325 182.498C304.325 182.042 304.139 181.736 303.767 181.58C303.407 181.412 302.903 181.262 302.255 181.13C301.751 181.022 301.247 180.878 300.743 180.698C300.251 180.518 299.837 180.266 299.501 179.942C299.177 179.606 299.015 179.156 299.015 178.592C299.015 177.812 299.315 177.164 299.915 176.648C300.515 176.12 301.355 175.856 302.435 175.856C303.431 175.856 304.235 176.096 304.847 176.576C305.471 177.056 305.837 177.734 305.945 178.61H304.109C304.049 178.226 303.869 177.926 303.569 177.71C303.281 177.494 302.891 177.386 302.399 177.386C301.919 177.386 301.547 177.488 301.283 177.692C301.019 177.884 300.887 178.136 300.887 178.448C300.887 178.76 301.067 179.006 301.427 179.186C301.799 179.366 302.285 179.528 302.885 179.672C303.485 179.804 304.037 179.96 304.541 180.14C305.057 180.308 305.471 180.56 305.783 180.896C306.095 181.232 306.251 181.724 306.251 182.372C306.263 183.188 305.945 183.866 305.297 184.406C304.661 184.946 303.791 185.216 302.687 185.216ZM311.744 185C310.868 185 310.172 184.79 309.656 184.37C309.14 183.938 308.882 183.176 308.882 182.084V177.674H307.352V176.072H308.882L309.116 173.804H310.79V176.072H313.31V177.674H310.79V182.084C310.79 182.576 310.892 182.918 311.096 183.11C311.312 183.29 311.678 183.38 312.194 183.38H313.22V185H311.744ZM316.321 188.96L318.463 184.262H317.941L314.413 176.072H316.483L319.219 182.678L322.081 176.072H324.097L318.337 188.96H316.321ZM325.666 188.96V176.072H327.376L327.574 177.458C327.862 177.038 328.258 176.666 328.762 176.342C329.266 176.018 329.914 175.856 330.706 175.856C331.57 175.856 332.332 176.06 332.992 176.468C333.652 176.876 334.168 177.434 334.54 178.142C334.924 178.85 335.116 179.654 335.116 180.554C335.116 181.454 334.924 182.258 334.54 182.966C334.168 183.662 333.652 184.214 332.992 184.622C332.332 185.018 331.564 185.216 330.688 185.216C329.992 185.216 329.374 185.078 328.834 184.802C328.306 184.526 327.886 184.136 327.574 183.632V188.96H325.666ZM330.364 183.56C331.18 183.56 331.852 183.284 332.38 182.732C332.908 182.168 333.172 181.436 333.172 180.536C333.172 179.948 333.052 179.426 332.812 178.97C332.572 178.514 332.242 178.16 331.822 177.908C331.402 177.644 330.916 177.512 330.364 177.512C329.548 177.512 328.876 177.794 328.348 178.358C327.832 178.922 327.574 179.648 327.574 180.536C327.574 181.436 327.832 182.168 328.348 182.732C328.876 183.284 329.548 183.56 330.364 183.56ZM341.356 185.216C340.48 185.216 339.7 185.024 339.016 184.64C338.344 184.244 337.816 183.698 337.432 183.002C337.048 182.306 336.856 181.496 336.856 180.572C336.856 179.636 337.042 178.814 337.414 178.106C337.798 177.398 338.326 176.846 338.998 176.45C339.682 176.054 340.474 175.856 341.374 175.856C342.25 175.856 343.012 176.054 343.66 176.45C344.308 176.834 344.812 177.35 345.172 177.998C345.532 178.646 345.712 179.36 345.712 180.14C345.712 180.26 345.706 180.392 345.694 180.536C345.694 180.668 345.688 180.818 345.676 180.986H338.728C338.788 181.85 339.07 182.51 339.574 182.966C340.09 183.41 340.684 183.632 341.356 183.632C341.896 183.632 342.346 183.512 342.706 183.272C343.078 183.02 343.354 182.684 343.534 182.264H345.442C345.202 183.104 344.722 183.806 344.002 184.37C343.294 184.934 342.412 185.216 341.356 185.216ZM341.356 177.422C340.72 177.422 340.156 177.614 339.664 177.998C339.172 178.37 338.872 178.934 338.764 179.69H343.804C343.768 178.994 343.522 178.442 343.066 178.034C342.61 177.626 342.04 177.422 341.356 177.422ZM351.759 185.216C350.895 185.216 350.133 185.012 349.473 184.604C348.813 184.196 348.297 183.638 347.925 182.93C347.553 182.222 347.367 181.418 347.367 180.518C347.367 179.618 347.553 178.82 347.925 178.124C348.297 177.416 348.813 176.864 349.473 176.468C350.145 176.06 350.913 175.856 351.777 175.856C352.485 175.856 353.103 175.994 353.631 176.27C354.171 176.546 354.591 176.936 354.891 177.44V172.04H356.799V185H355.089L354.891 183.614C354.603 184.034 354.207 184.406 353.703 184.73C353.199 185.054 352.551 185.216 351.759 185.216ZM352.101 183.56C352.917 183.56 353.583 183.278 354.099 182.714C354.627 182.15 354.891 181.424 354.891 180.536C354.891 179.636 354.627 178.91 354.099 178.358C353.583 177.794 352.917 177.512 352.101 177.512C351.285 177.512 350.613 177.794 350.085 178.358C349.557 178.91 349.293 179.636 349.293 180.536C349.293 181.124 349.413 181.646 349.653 182.102C349.893 182.558 350.223 182.918 350.643 183.182C351.075 183.434 351.561 183.56 352.101 183.56ZM367.484 185C366.608 185 365.912 184.79 365.396 184.37C364.88 183.938 364.622 183.176 364.622 182.084V177.674H363.092V176.072H364.622L364.856 173.804H366.53V176.072H369.05V177.674H366.53V182.084C366.53 182.576 366.632 182.918 366.836 183.11C367.052 183.29 367.418 183.38 367.934 183.38H368.96V185H367.484ZM371.018 185V172.04H372.926V177.512C373.226 176.996 373.64 176.594 374.168 176.306C374.708 176.006 375.302 175.856 375.95 175.856C377.018 175.856 377.858 176.192 378.47 176.864C379.082 177.536 379.388 178.538 379.388 179.87V185H377.498V180.068C377.498 178.34 376.808 177.476 375.428 177.476C374.708 177.476 374.108 177.728 373.628 178.232C373.16 178.736 372.926 179.456 372.926 180.392V185H371.018ZM385.811 185.216C384.935 185.216 384.155 185.024 383.471 184.64C382.799 184.244 382.271 183.698 381.887 183.002C381.503 182.306 381.311 181.496 381.311 180.572C381.311 179.636 381.497 178.814 381.869 178.106C382.253 177.398 382.781 176.846 383.453 176.45C384.137 176.054 384.929 175.856 385.829 175.856C386.705 175.856 387.467 176.054 388.115 176.45C388.763 176.834 389.267 177.35 389.627 177.998C389.987 178.646 390.167 179.36 390.167 180.14C390.167 180.26 390.161 180.392 390.149 180.536C390.149 180.668 390.143 180.818 390.131 180.986H383.183C383.243 181.85 383.525 182.51 384.029 182.966C384.545 183.41 385.139 183.632 385.811 183.632C386.351 183.632 386.801 183.512 387.161 183.272C387.533 183.02 387.809 182.684 387.989 182.264H389.897C389.657 183.104 389.177 183.806 388.457 184.37C387.749 184.934 386.867 185.216 385.811 185.216ZM385.811 177.422C385.175 177.422 384.611 177.614 384.119 177.998C383.627 178.37 383.327 178.934 383.219 179.69H388.259C388.223 178.994 387.977 178.442 387.521 178.034C387.065 177.626 386.495 177.422 385.811 177.422ZM396.682 185V172.04H398.59V185H396.682ZM402.086 174.38C401.726 174.38 401.426 174.272 401.186 174.056C400.958 173.828 400.844 173.546 400.844 173.21C400.844 172.874 400.958 172.598 401.186 172.382C401.426 172.154 401.726 172.04 402.086 172.04C402.446 172.04 402.74 172.154 402.968 172.382C403.208 172.598 403.328 172.874 403.328 173.21C403.328 173.546 403.208 173.828 402.968 174.056C402.74 174.272 402.446 174.38 402.086 174.38ZM401.132 185V176.072H403.04V185H401.132ZM405.559 185V176.072H407.251L407.395 177.638C407.671 177.086 408.073 176.654 408.601 176.342C409.141 176.018 409.759 175.856 410.455 175.856C411.535 175.856 412.381 176.192 412.993 176.864C413.617 177.536 413.929 178.538 413.929 179.87V185H412.039V180.068C412.039 178.34 411.331 177.476 409.915 177.476C409.207 177.476 408.619 177.728 408.151 178.232C407.695 178.736 407.467 179.456 407.467 180.392V185H405.559ZM416.176 185V172.04H418.084V179.762L421.504 176.072H423.79L419.992 180.122L424.348 185H421.936L418.084 180.428V185H416.176ZM426.582 185.108C426.222 185.108 425.922 184.994 425.682 184.766C425.454 184.526 425.34 184.244 425.34 183.92C425.34 183.584 425.454 183.302 425.682 183.074C425.922 182.834 426.222 182.714 426.582 182.714C426.942 182.714 427.236 182.834 427.464 183.074C427.692 183.302 427.806 183.584 427.806 183.92C427.806 184.244 427.692 184.526 427.464 184.766C427.236 184.994 426.942 185.108 426.582 185.108Z" fill="#2D4642"/>
<path d="M157.012 117V101.705H116.422V89.7041L155.012 34.6417H172.072V88.6452H182.896V101.705H172.072V117H157.012ZM132.54 88.6452H157.954V51.231L132.54 88.6452ZM228.502 118.412C220.894 118.412 214.384 116.647 208.972 113.117C203.56 109.509 199.363 104.529 196.383 98.1752C193.48 91.7435 192.029 84.292 192.029 75.8209C192.029 67.4282 193.48 60.0159 196.383 53.5841C199.363 47.1523 203.56 42.1716 208.972 38.642C214.384 35.0339 220.894 33.2299 228.502 33.2299C236.111 33.2299 242.621 35.0339 248.033 38.642C253.445 42.1716 257.602 47.1523 260.504 53.5841C263.485 60.0159 264.975 67.4282 264.975 75.8209C264.975 84.292 263.485 91.7435 260.504 98.1752C257.602 104.529 253.445 109.509 248.033 113.117C242.621 116.647 236.111 118.412 228.502 118.412ZM228.502 104.882C234.699 104.882 239.758 102.293 243.68 97.1164C247.602 91.9396 249.562 84.8411 249.562 75.8209C249.562 66.8007 247.602 59.7022 243.68 54.5254C239.758 49.3486 234.699 46.7602 228.502 46.7602C222.227 46.7602 217.129 49.3486 213.207 54.5254C209.364 59.7022 207.442 66.8007 207.442 75.8209C207.442 84.8411 209.364 91.9396 213.207 97.1164C217.129 102.293 222.227 104.882 228.502 104.882ZM315.915 117V101.705H275.324V89.7041L313.915 34.6417H330.975V88.6452H341.799V101.705H330.975V117H315.915ZM291.443 88.6452H316.856V51.231L291.443 88.6452Z" fill="#A792C6"/>
</svg>
