<svg width="257" height="74" viewBox="0 0 257 74" fill="none" xmlns="http://www.w3.org/2000/svg">
<path d="M0.84375 16.5C0.84375 7.66346 8.00719 0.5 16.8438 0.5H240.844C249.68 0.5 256.844 7.66344 256.844 16.5V73.3878H0.84375V16.5Z" fill="#FAFAFA"/>
<path d="M74.3189 24.5H86.7798V31.2752H74.3189C71.2206 31.2752 68.6672 33.7946 68.6672 36.9269C68.6672 40.0591 71.2206 42.5786 74.3189 42.5786H86.7798V49.3878H74.3189C67.4756 49.3878 61.892 43.8042 61.892 36.9269C61.892 30.0495 67.4756 24.5 74.3189 24.5Z" fill="#5F4080"/>
<path d="M116.479 24.5V31.2752H104.018C100.885 31.2752 98.3659 33.7947 98.3659 36.9269V49.3878H91.5907V36.9269C91.5907 30.0836 97.1402 24.5 104.018 24.5H116.479ZM107.422 36.9269C107.422 38.7995 105.89 40.3315 104.018 40.3315C102.145 40.3315 100.647 38.7995 100.647 36.9269C100.647 35.0544 102.145 33.5223 104.018 33.5223C105.89 33.5223 107.422 35.0544 107.422 36.9269Z" fill="#FF851B"/>
<path d="M146.174 35.8016C146.174 42.0312 141.101 47.1033 134.872 47.1033H128.064V49.35H121.29V40.3291H134.872C137.357 40.3291 139.399 38.2866 139.399 35.8016C139.399 33.2826 137.357 31.2742 134.872 31.2742H121.29V24.5H134.872C141.101 24.5 146.174 29.5721 146.174 35.8016Z" fill="#5F4080"/>
<line x1="151.466" y1="24.5" x2="151.466" y2="49.3878" stroke="#1E1E1E" stroke-width="0.962194"/>
<path d="M158.018 29.5693C157.61 29.5693 157.26 29.4827 156.967 29.3095C156.675 29.1324 156.45 28.888 156.292 28.5763C156.134 28.2607 156.055 27.897 156.055 27.4852C156.055 27.0733 156.134 26.7096 156.292 26.394C156.45 26.0784 156.675 25.8321 156.967 25.6551C157.26 25.478 157.61 25.3895 158.018 25.3895C158.503 25.3895 158.9 25.5107 159.207 25.7532C159.519 25.9918 159.714 26.3286 159.791 26.7635H158.977C158.927 26.5441 158.819 26.3729 158.653 26.2497C158.492 26.1227 158.276 26.0592 158.007 26.0592C157.633 26.0592 157.341 26.1862 157.129 26.4402C156.917 26.6942 156.812 27.0426 156.812 27.4852C156.812 27.9278 156.917 28.2761 157.129 28.5301C157.341 28.7803 157.633 28.9054 158.007 28.9054C158.276 28.9054 158.492 28.8476 158.653 28.7322C158.819 28.6129 158.927 28.4493 158.977 28.2415H159.791C159.714 28.6571 159.519 28.9823 159.207 29.2171C158.9 29.4519 158.503 29.5693 158.018 29.5693ZM160.134 29.5L161.612 25.4588H162.443L163.921 29.5H163.136L162.813 28.5647H161.237L160.908 29.5H160.134ZM161.439 27.9874H162.611L162.022 26.3074L161.439 27.9874ZM164.442 29.5V25.4588H165.181V28.9227H166.971V29.5H164.442ZM167.622 29.5V25.4588H168.361V28.9227H170.15V29.5H167.622Z" fill="#1E1E1E"/>
<path d="M156.188 37.7034V33.6622H158.798V34.2568H156.927V35.3883H158.44V35.9714H156.927V37.7034H156.188ZM161.261 37.7726C160.857 37.7726 160.503 37.6841 160.199 37.5071C159.899 37.33 159.662 37.0856 159.489 36.7739C159.32 36.4583 159.235 36.0946 159.235 35.6828C159.235 35.2709 159.32 34.9092 159.489 34.5974C159.662 34.2818 159.899 34.0355 160.199 33.8584C160.503 33.6814 160.857 33.5929 161.261 33.5929C161.662 33.5929 162.014 33.6814 162.318 33.8584C162.622 34.0355 162.859 34.2818 163.028 34.5974C163.197 34.9092 163.282 35.2709 163.282 35.6828C163.282 36.0946 163.197 36.4583 163.028 36.7739C162.859 37.0856 162.622 37.33 162.318 37.5071C162.014 37.6841 161.662 37.7726 161.261 37.7726ZM161.261 37.1087C161.646 37.1087 161.952 36.9817 162.179 36.7277C162.41 36.4737 162.526 36.1254 162.526 35.6828C162.526 35.2402 162.41 34.8918 162.179 34.6378C161.952 34.3838 161.646 34.2568 161.261 34.2568C160.877 34.2568 160.569 34.3838 160.338 34.6378C160.107 34.8918 159.991 35.2402 159.991 35.6828C159.991 36.1254 160.107 36.4737 160.338 36.7277C160.569 36.9817 160.877 37.1087 161.261 37.1087ZM163.935 37.7034V33.6622H165.418C165.742 33.6622 166.007 33.718 166.215 33.8296C166.427 33.9373 166.584 34.0855 166.688 34.2741C166.792 34.4589 166.844 34.6648 166.844 34.8918C166.844 35.1382 166.779 35.3633 166.648 35.5673C166.521 35.7713 166.321 35.9195 166.048 36.0118L166.885 37.7034H166.036L165.285 36.11H164.673V37.7034H163.935ZM164.673 35.5673H165.372C165.618 35.5673 165.799 35.5076 165.915 35.3883C166.03 35.269 166.088 35.1112 166.088 34.9149C166.088 34.7225 166.03 34.5685 165.915 34.4531C165.803 34.3376 165.62 34.2799 165.366 34.2799H164.673V35.5673Z" fill="#1E1E1E"/>
<path d="M156.188 47.3878V43.3466H157.683C158.007 43.3466 158.274 43.4005 158.486 43.5083C158.698 43.616 158.855 43.7642 158.959 43.9528C159.063 44.1414 159.115 44.3531 159.115 44.5878C159.115 44.8111 159.065 45.017 158.965 45.2056C158.865 45.3903 158.709 45.5404 158.497 45.6559C158.286 45.7675 158.014 45.8233 157.683 45.8233H156.927V47.3878H156.188ZM156.927 45.2229H157.637C157.895 45.2229 158.08 45.1671 158.191 45.0555C158.307 44.94 158.365 44.7841 158.365 44.5878C158.365 44.3877 158.307 44.2318 158.191 44.1202C158.08 44.0047 157.895 43.947 157.637 43.947H156.927V45.2229ZM159.001 47.3878L160.479 43.3466H161.31L162.788 47.3878H162.003L161.68 46.4526H160.104L159.775 47.3878H159.001ZM160.306 45.8752H161.478L160.889 44.1953L160.306 45.8752ZM163.309 47.3878V43.3466H164.792C165.116 43.3466 165.381 43.4024 165.589 43.514C165.801 43.6218 165.959 43.77 166.063 43.9586C166.166 44.1433 166.218 44.3492 166.218 44.5763C166.218 44.8226 166.153 45.0478 166.022 45.2517C165.895 45.4557 165.695 45.6039 165.422 45.6963L166.259 47.3878H165.41L164.66 45.7944H164.048V47.3878H163.309ZM164.048 45.2517H164.746C164.993 45.2517 165.173 45.1921 165.289 45.0728C165.404 44.9535 165.462 44.7957 165.462 44.5994C165.462 44.4069 165.404 44.253 165.289 44.1375C165.177 44.0221 164.994 43.9643 164.74 43.9643H164.048V45.2517ZM167.847 47.3878V43.9412H166.669V43.3466H169.769V43.9412H168.586V47.3878H167.847ZM170.317 47.3878V43.3466H171.056V47.3878H170.317ZM173.669 47.4571C173.261 47.4571 172.911 47.3705 172.618 47.1973C172.326 47.0203 172.101 46.7759 171.943 46.4641C171.785 46.1485 171.706 45.7848 171.706 45.373C171.706 44.9612 171.785 44.5975 171.943 44.2819C172.101 43.9663 172.326 43.7199 172.618 43.5429C172.911 43.3658 173.261 43.2773 173.669 43.2773C174.154 43.2773 174.55 43.3986 174.858 43.641C175.17 43.8797 175.364 44.2164 175.441 44.6513H174.627C174.577 44.432 174.469 44.2607 174.304 44.1375C174.142 44.0105 173.927 43.947 173.657 43.947C173.284 43.947 172.992 44.074 172.78 44.328C172.568 44.5821 172.462 44.9304 172.462 45.373C172.462 45.8156 172.568 46.1639 172.78 46.4179C172.992 46.6681 173.284 46.7932 173.657 46.7932C173.927 46.7932 174.142 46.7354 174.304 46.62C174.469 46.5007 174.577 46.3371 174.627 46.1293H175.441C175.364 46.5449 175.17 46.8702 174.858 47.1049C174.55 47.3397 174.154 47.4571 173.669 47.4571ZM176.095 47.3878V43.3466H176.834V47.3878H176.095ZM177.618 47.3878V43.3466H179.113C179.436 43.3466 179.704 43.4005 179.915 43.5083C180.127 43.616 180.285 43.7642 180.389 43.9528C180.493 44.1414 180.545 44.3531 180.545 44.5878C180.545 44.8111 180.495 45.017 180.394 45.2056C180.294 45.3903 180.139 45.5404 179.927 45.6559C179.715 45.7675 179.444 45.8233 179.113 45.8233H178.357V47.3878H177.618ZM178.357 45.2229H179.067C179.325 45.2229 179.509 45.1671 179.621 45.0555C179.736 44.94 179.794 44.7841 179.794 44.5878C179.794 44.3877 179.736 44.2318 179.621 44.1202C179.509 44.0047 179.325 43.947 179.067 43.947H178.357V45.2229ZM180.43 47.3878L181.908 43.3466H182.74L184.218 47.3878H183.432L183.109 46.4526H181.533L181.204 47.3878H180.43ZM181.735 45.8752H182.907L182.318 44.1953L181.735 45.8752ZM184.738 47.3878V43.3466H185.477L187.377 46.1928V43.3466H188.116V47.3878H187.377L185.477 44.5474V47.3878H184.738ZM189.84 47.3878V43.9412H188.662V43.3466H191.762V43.9412H190.579V47.3878H189.84ZM193.639 47.4571C193.343 47.4571 193.081 47.4071 192.854 47.307C192.627 47.2031 192.448 47.0568 192.317 46.8682C192.186 46.6758 192.119 46.4429 192.115 46.1697H192.894C192.902 46.3583 192.969 46.518 193.096 46.6489C193.227 46.7759 193.406 46.8394 193.633 46.8394C193.829 46.8394 193.985 46.7932 194.101 46.7008C194.216 46.6046 194.274 46.4776 194.274 46.3198C194.274 46.1543 194.222 46.0254 194.118 45.933C194.018 45.8406 193.883 45.7656 193.714 45.7078C193.545 45.6501 193.364 45.5885 193.171 45.5231C192.86 45.4153 192.621 45.2768 192.455 45.1074C192.294 44.9381 192.213 44.7129 192.213 44.432C192.209 44.1933 192.265 43.9893 192.38 43.82C192.5 43.6468 192.661 43.514 192.865 43.4217C193.069 43.3254 193.304 43.2773 193.57 43.2773C193.839 43.2773 194.076 43.3254 194.28 43.4217C194.488 43.5179 194.649 43.6526 194.765 43.8258C194.884 43.999 194.947 44.2049 194.955 44.4435H194.164C194.16 44.3011 194.105 44.176 193.997 44.0682C193.893 43.9566 193.747 43.9008 193.558 43.9008C193.396 43.897 193.26 43.9374 193.148 44.0221C193.04 44.1029 192.987 44.2222 192.987 44.38C192.987 44.5147 193.029 44.6225 193.114 44.7033C193.198 44.7803 193.314 44.8457 193.46 44.8996C193.606 44.9535 193.774 45.0112 193.962 45.0728C194.162 45.1421 194.345 45.2229 194.511 45.3153C194.676 45.4076 194.809 45.5308 194.909 45.6847C195.009 45.8348 195.059 46.0292 195.059 46.2678C195.059 46.4795 195.005 46.6758 194.897 46.8567C194.79 47.0376 194.63 47.1838 194.418 47.2954C194.207 47.4032 193.947 47.4571 193.639 47.4571Z" fill="#1E1E1E"/>
</svg>
